<svg width="131" height="24" viewBox="0 0 131 24" fill="none" xmlns="http://www.w3.org/2000/svg">
<g clip-path="url(#clip0_3882_107629)">
<path d="M43.9472 7.68174H46.673V3.93455L51.0666 1.53491V7.68174H54.0811V11.6163H51.0666V16.7038C51.0666 17.3235 51.0991 17.8244 51.1641 18.2063C51.2291 18.5918 51.3626 18.8837 51.5648 19.0854C51.767 19.2872 52.0738 19.4205 52.4782 19.4854C52.8825 19.5502 53.4169 19.5827 54.0811 19.5827V23.6793H53.4385C52.1569 23.6793 51.0883 23.564 50.2326 23.3262C49.377 23.092 48.6838 22.7029 48.1495 22.1589C47.6152 21.6148 47.2361 20.9014 47.0123 20.015C46.7885 19.1287 46.6766 18.0369 46.6766 16.7362V11.6163H43.9508V7.68174H43.9472Z" fill="#41414B"/>
<path d="M56.3989 7.68176H60.7601V9.3788C61.251 8.75907 61.8612 8.26906 62.5868 7.90515C63.3125 7.54124 64.1248 7.36108 65.0237 7.36108C66.179 7.36108 67.1682 7.58087 67.9913 8.01684C68.8145 8.45281 69.4715 9.07975 69.9625 9.89044C70.5185 9.12298 71.2297 8.51046 72.0961 8.04927C72.9626 7.59168 73.9193 7.36108 74.9663 7.36108C77.0169 7.36108 78.5476 7.93757 79.5513 9.09055C80.5549 10.2435 81.0567 11.8541 81.0567 13.9223V23.683H76.5981V14.4988C76.5981 13.4106 76.3779 12.5747 75.941 11.9874C75.5042 11.4001 74.793 11.1083 73.8074 11.1083C72.9734 11.1083 72.2839 11.4109 71.7387 12.0198C71.1936 12.6288 70.9228 13.6052 70.9228 14.9491V23.6866H66.4642V14.5024C66.4642 13.4142 66.244 12.5783 65.8071 11.991C65.3703 11.4037 64.6591 11.1119 63.6735 11.1119C62.8395 11.1119 62.15 11.4145 61.6048 12.0234C61.0597 12.6324 60.7889 13.6088 60.7889 14.9527V23.6902H56.3953V7.68176H56.3989Z" fill="#41414B"/>
<path d="M91.0498 24C89.8945 24 88.8151 23.7802 87.8114 23.3442C86.8078 22.9082 85.9233 22.3137 85.1651 21.5679C84.407 20.8221 83.8113 19.9429 83.3853 18.9269C82.9557 17.9144 82.7427 16.8299 82.7427 15.6805C82.7427 14.5311 82.9557 13.4466 83.3853 12.4305C83.8113 11.4181 84.407 10.5389 85.1651 9.78949C85.9233 9.04365 86.8042 8.44915 87.8114 8.01318C88.8151 7.57721 89.8945 7.35742 91.0498 7.35742C92.2051 7.35742 93.2845 7.57721 94.2882 8.01318C95.2918 8.44915 96.1763 9.04365 96.9345 9.78949C97.6926 10.5353 98.2847 11.4181 98.7143 12.4305C99.1403 13.443 99.3569 14.5275 99.3569 15.6805C99.3569 16.8335 99.1439 17.9144 98.7143 18.9269C98.2847 19.9393 97.6926 20.8221 96.9345 21.5679C96.1763 22.3137 95.2954 22.9082 94.2882 23.3442C93.2845 23.7802 92.2051 24 91.0498 24V24ZM91.0498 19.8384C91.6058 19.8384 92.1293 19.7267 92.6202 19.5033C93.1112 19.28 93.5409 18.9809 93.9019 18.6062C94.2665 18.2315 94.5553 17.7955 94.7683 17.2947C94.9813 16.7938 95.0896 16.2534 95.0896 15.6769C95.0896 15.1004 94.9813 14.5635 94.7683 14.0591C94.5553 13.5583 94.2665 13.1223 93.9019 12.7476C93.5372 12.3765 93.1112 12.0774 92.6202 11.8504C92.1293 11.6271 91.6058 11.5154 91.0498 11.5154C90.4938 11.5154 89.9451 11.6271 89.4613 11.8504C88.9811 12.0738 88.5587 12.3729 88.1941 12.7476C87.8295 13.1223 87.5479 13.5583 87.3457 14.0591C87.1435 14.5599 87.0425 15.1004 87.0425 15.6769C87.0425 16.2534 87.1435 16.7902 87.3457 17.2947C87.5479 17.7955 87.8331 18.2351 88.1941 18.6062C88.5587 18.9809 88.9811 19.28 89.4613 19.5033C89.9415 19.7267 90.4722 19.8384 91.0498 19.8384V19.8384Z" fill="#41414B"/>
<path d="M110.238 23.9999C109.17 23.9999 108.216 23.8125 107.386 23.4414C106.552 23.0703 105.881 22.5731 105.364 21.9533V23.6828H100.971V0.320557H105.364V9.43991C105.877 8.82018 106.534 8.31935 107.336 7.93743C108.137 7.5519 109.083 7.36094 110.173 7.36094C111.072 7.36094 111.986 7.52668 112.913 7.85816C113.845 8.18964 114.675 8.70128 115.415 9.39307C116.152 10.0885 116.758 10.9568 117.228 12.0017C117.697 13.0466 117.932 14.2752 117.932 15.6804C117.932 17.0856 117.69 18.3142 117.21 19.3591C116.729 20.404 116.112 21.2688 115.365 21.9497C114.617 22.6343 113.787 23.146 112.881 23.4846C111.971 23.8269 111.09 23.9963 110.235 23.9963L110.238 23.9999ZM109.339 19.9681C109.96 19.9681 110.531 19.8564 111.054 19.633C111.578 19.4096 112.032 19.1033 112.415 18.7214C112.801 18.3359 113.097 17.8855 113.314 17.363C113.527 16.8406 113.635 16.2713 113.635 15.6516C113.635 15.0319 113.527 14.4626 113.314 13.9401C113.101 13.4177 112.801 12.9637 112.415 12.5782C112.029 12.1926 111.578 11.8972 111.054 11.681C110.531 11.4684 109.957 11.3603 109.339 11.3603C108.722 11.3603 108.191 11.472 107.689 11.6954C107.188 11.9188 106.754 12.2251 106.39 12.607C106.025 12.9925 105.743 13.4429 105.541 13.9654C105.339 14.4878 105.238 15.0499 105.238 15.6444C105.238 16.2389 105.339 16.801 105.541 17.3234C105.743 17.8458 106.029 18.3034 106.39 18.6998C106.754 19.0961 107.188 19.4024 107.689 19.6294C108.191 19.8528 108.744 19.9644 109.339 19.9644V19.9681Z" fill="#41414B"/>
<path d="M119.26 3.45526C119.26 2.66619 119.502 2.02485 119.982 1.53483C120.462 1.04481 121.098 0.799805 121.888 0.799805C122.679 0.799805 123.322 1.04481 123.813 1.53483C124.304 2.02485 124.549 2.66619 124.549 3.45526C124.549 4.24433 124.304 4.87847 123.813 5.35768C123.322 5.83689 122.679 6.07829 121.888 6.07829C121.098 6.07829 120.462 5.83689 119.982 5.35768C119.502 4.87847 119.26 4.24433 119.26 3.45526ZM119.708 7.67805H124.101V23.6793H119.708V7.68166V7.67805Z" fill="#41414B"/>
<path d="M126.365 0.320557H130.759V23.6792H126.365V0.320557Z" fill="#41414B"/>
<path d="M38.503 18.4765C38.2287 19.0062 37.846 19.4313 37.355 19.7448C36.8207 20.0871 36.1058 20.2564 35.2069 20.2564C34.095 20.2564 33.1924 19.9754 32.4956 19.4097C31.7989 18.844 31.3367 18.091 31.1021 17.1542H43.5104V15.7454C43.5104 14.5924 43.301 13.5115 42.8858 12.4991C42.4707 11.4866 41.893 10.5966 41.1529 9.82558C40.4165 9.05813 39.5392 8.45642 38.5247 8.01684C37.5102 7.58087 36.4019 7.36108 35.2069 7.36108C34.0119 7.36108 32.9722 7.58087 31.9685 8.01684C30.9649 8.45281 30.0804 9.04732 29.3222 9.79315C28.5641 10.539 27.9684 11.4217 27.5424 12.4342C27.1128 13.4467 26.8998 14.5312 26.8998 15.6806C26.8998 16.8299 27.0911 17.9145 27.4774 18.9269C27.8637 19.9394 28.4161 20.8221 29.1453 21.568C29.871 22.3138 30.7447 22.9083 31.7591 23.3443C32.7736 23.7802 33.9108 24 35.1744 24C37.2467 24 38.9543 23.4992 40.2901 22.4976C41.5898 21.5211 42.5609 20.1808 43.2035 18.4765H38.503V18.4765ZM31.2681 13.5367C31.64 12.8161 32.1671 12.2216 32.8386 11.7712C33.5101 11.3208 34.3188 11.0903 35.243 11.0903C36.1672 11.0903 36.9109 11.2956 37.5933 11.7028C38.2792 12.1135 38.7846 12.7333 39.0951 13.5511L39.1673 13.7421H31.1671L31.2718 13.5367H31.2681Z" fill="#41414B"/>
<path d="M13.9246 12.5459V16.6101H18.1017C16.7081 18.4369 14.5059 19.6187 12.0256 19.6187C7.81252 19.6187 4.39364 16.2102 4.39364 12.0018C4.39364 7.79342 7.80891 4.38493 12.0256 4.38493C15.4156 4.38493 18.2894 6.5936 19.2822 9.649H23.813C22.7155 4.15433 17.8489 0 12.0256 0C5.39367 0 0 5.38297 0 12.0018C0 18.6206 5.39367 24.0036 12.0256 24.0036C15.607 24.0036 18.8309 22.4327 21.0332 19.9429V23.6757H24.878V12.5495H13.9246V12.5459Z" fill="#41414B"/>
</g>
<defs>
<clipPath id="clip0_3882_107629">
<rect width="130.759" height="24" fill="white"/>
</clipPath>
</defs>
</svg>
